<svg xmlns:xlink="http://www.w3.org/1999/xlink" xmlns="http://www.w3.org/2000/svg"   viewBox="0 0 32 32" class="SupportedLanguages-module__supportedIcon___dhfjt Icon-module__icon___5Kqln Icon-module__small___I5e4j" width="1"  height="1" ><path d="M16 0c1.467 0 2.878.189 4.233.567a15.9 15.9 0 013.817 1.616 16.209 16.209 0 015.75 5.75 16.43 16.43 0 011.617 3.817c.389 1.367.583 2.783.583 4.25s-.189 2.878-.567 4.233a16.212 16.212 0 01-1.616 3.834c-.7 1.2-1.534 2.277-2.5 3.233a16.74 16.74 0 01-3.25 2.5c-1.2.711-2.473 1.25-3.817 1.617A17.06 17.06 0 0116 32a15.758 15.758 0 01-8.067-2.183A16.117 16.117 0 012.2 24.083 15.832 15.832 0 01.583 20.25 16.347 16.347 0 010 16c0-1.467.189-2.878.567-4.233a16.212 16.212 0 011.616-3.834c.7-1.2 1.534-2.277 2.5-3.233a16.74 16.74 0 013.25-2.5c1.2-.711 2.473-1.25 3.817-1.617A17.06 17.06 0 0116 0zm6.204 10.379l-8.677 8.676-3.93-3.93-.121-.109-.155-.11c-.664-.407-1.489-.313-2.021.22a1.625 1.625 0 000 2.298l5.079 5.079.121.109.155.111c.664.406 1.49.312 2.022-.22l9.825-9.826.11-.122.11-.154c.407-.664.313-1.49-.22-2.022a1.625 1.625 0 00-2.298 0z" fill-rule="evenodd" fill="#FFFFFF"></path></svg>