<svg xmlns:xlink="http://www.w3.org/1999/xlink" xmlns="http://www.w3.org/2000/svg" viewBox="0 0 2048 2048"   class="CloudGamingButton-module__betaIcon___Xy-SS Icon-module__icon___5Kqln Icon-module__xLarge___03ZVK" width="1"  height="1" ><title>BETA</title><path d="M395 986h-49V869h42q14 0 28 2t26 8 19 16 8 28q0 32-22 47t-52 16zm93 146q0 36-25 51t-57 15h-60v-130h61q31 0 56 14t25 50zm1133-257q2 23 9 44l53 166h-127l54-167q8-21 9-43h2zm334-363q19 0 36 7t29 20 20 30 8 36v838q0 19-7 36t-20 29-30 20-36 8H93q-19 0-36-7t-29-20-20-30-8-36V605q0-19 7-36t20-29 30-20 36-8h1862zM605 1133q0-52-33-81t-82-37v-1q19-6 36-16t31-24 21-32 8-39q0-35-16-57t-41-36-55-18-59-5H235v493h190q35 0 67-8t58-26 40-46 15-67zm377 147v-90H797v-113h162v-90H797V878h174v-91H686v493h296zm291 0V878h141v-91h-392v91h139v402h112zm470 0h121l-175-493h-132l-179 493h120l35-110h175l35 110z" fill="#FFFFFF"></path></svg>