<svg xmlns:xlink="http://www.w3.org/1999/xlink" class="XboxGamePassLogo-module__svg___JzAU- GamePassPromoSection-module__gamepassLogo___RL7ch"   viewBox="0 0 2112 360" version="1.1" xmlns="http://www.w3.org/2000/svg" width="2112"  height="360" ><title>Game Pass</title><g stroke="none" stroke-width="1" fill-rule="evenodd" fill="#FFFFFF"><path d="M1595.95,206.009 L1633.358,106.949 L1670.766,206.009 L1595.95,206.009 Z M1652.054,74.506 L1614.664,74.506 L1530.181,290.878 L1564.499,290.878 L1585.406,234.822 L1681.31,234.822 L1702.218,290.878 L1736.535,290.878 L1652.054,74.506 Z M2111.656,230.869 C2111.656,250.876 2104.122,266.864 2089.263,278.388 C2074.429,289.892 2053.617,295.725 2027.408,295.725 C1998.983,295.725 1976.539,289.177 1960.698,276.262 C1944.839,263.332 1936.695,244.187 1936.493,219.358 L1936.49,219.037 L1969.543,219.037 L1969.549,219.349 C1969.848,235.337 1974.907,247.489 1984.584,255.47 C1994.276,263.464 2008.888,267.518 2028.013,267.518 C2043.829,267.518 2056.153,264.429 2064.643,258.336 C2073.1,252.267 2077.388,243.331 2077.388,231.778 C2077.388,222.436 2073.864,215.13 2066.914,210.067 C2059.913,204.966 2047.107,200.345 2028.854,196.334 L2010.374,192.395 C1988.206,187.961 1971.232,180.597 1959.93,170.505 C1948.6,160.389 1942.856,146.241 1942.856,128.455 C1942.856,110.658 1949.83,96.25 1963.584,85.632 C1977.312,75.032 1996.136,69.658 2019.53,69.658 C2047.756,69.658 2069.284,75.8 2083.517,87.914 C2097.763,100.039 2105.192,116.939 2105.596,138.145 L2105.602,138.468 L2072.866,138.468 L2072.845,138.174 C2071.846,124.393 2067.247,114.12 2059.176,107.643 C2051.091,101.155 2037.853,97.866 2019.833,97.866 C2005.825,97.866 1994.978,100.497 1987.594,105.686 C1980.244,110.851 1976.517,118.308 1976.517,127.849 C1976.517,137.596 1979.84,145.054 1986.391,150.018 C1992.995,155.421 2005.387,160.089 2023.232,163.899 L2042.016,167.838 C2066.602,173.077 2084.544,180.748 2095.343,190.639 C2106.168,200.553 2111.656,214.088 2111.656,230.869 L2111.656,230.869 Z M1919.193,230.869 C1919.193,250.876 1911.659,266.864 1896.8,278.388 C1881.965,289.892 1861.154,295.725 1834.945,295.725 C1806.52,295.725 1784.076,289.177 1768.235,276.262 C1752.376,263.332 1744.232,244.187 1744.03,219.358 L1744.027,219.037 L1777.08,219.037 L1777.086,219.349 C1777.386,235.337 1782.444,247.489 1792.12,255.47 C1801.813,263.464 1816.426,267.518 1835.551,267.518 C1851.366,267.518 1863.69,264.429 1872.18,258.336 C1880.637,252.267 1884.926,243.331 1884.926,231.778 C1884.926,222.436 1881.401,215.13 1874.451,210.067 C1867.449,204.966 1854.644,200.345 1836.391,196.334 L1817.911,192.395 C1795.742,187.961 1778.769,180.597 1767.467,170.505 C1756.137,160.389 1750.392,146.241 1750.392,128.455 C1750.392,110.658 1757.367,96.25 1771.12,85.632 C1784.849,75.032 1803.672,69.658 1827.066,69.658 C1855.293,69.658 1876.82,75.8 1891.054,87.914 C1905.301,100.039 1912.729,116.939 1913.134,138.145 L1913.139,138.468 L1880.402,138.468 L1880.382,138.174 C1879.383,124.393 1874.784,114.12 1866.713,107.643 C1858.628,101.155 1845.39,97.866 1827.37,97.866 C1813.362,97.866 1802.515,100.497 1795.131,105.686 C1787.781,110.851 1784.054,118.308 1784.054,127.849 C1784.054,137.596 1787.377,145.054 1793.928,150.018 C1800.532,155.421 1812.924,160.089 1830.768,163.899 L1849.554,167.838 C1874.139,173.077 1892.081,180.748 1902.88,190.639 C1913.705,200.553 1919.193,214.088 1919.193,230.869 L1919.193,230.869 Z M1419.893,103.622 L1478.359,103.622 C1491.744,103.622 1502.068,107.058 1509.044,113.835 C1516.017,120.609 1519.553,130.421 1519.553,142.998 C1519.553,155.575 1516.017,165.336 1509.046,172.009 C1502.069,178.686 1491.745,182.072 1478.359,182.072 L1419.893,182.072 L1419.893,103.622 Z M1533.723,92.924 C1520.795,80.702 1502.371,74.506 1478.965,74.506 L1386.838,74.506 L1386.838,290.878 L1419.893,290.878 L1419.893,211.188 L1478.965,211.188 C1502.371,211.188 1520.794,204.991 1533.723,192.771 C1546.657,180.544 1553.215,163.799 1553.215,142.998 C1553.215,121.998 1546.657,105.151 1533.723,92.924 L1533.723,92.924 Z M1116.699,74.506 L1116.699,290.878 L1084.855,290.878 L1084.855,119.18 C1080.762,131.23 1075.276,146.17 1068.501,163.717 L1019.639,290.878 L991.934,290.878 L991.856,290.676 L942.467,163.717 C936.589,148.045 931.205,133.31 926.414,119.796 L926.414,290.878 L894.57,290.878 L894.57,74.506 L939.95,74.506 L984.266,189.547 C993.152,212.849 1000.492,233.035 1006.088,249.568 C1012.648,229.918 1020.091,208.711 1028.214,186.522 L1071.016,74.506 L1116.699,74.506 Z M1182.809,104.228 L1182.809,166.922 L1290.293,166.922 L1290.293,194.523 L1182.809,194.523 L1182.809,261.155 L1304.313,261.155 L1304.313,290.878 L1149.754,290.878 L1149.754,74.506 L1304.313,74.506 L1304.313,104.228 L1182.809,104.228 Z M653.621,176.921 L653.621,216.675 L653.621,290.873 L653.621,290.877 L622.528,290.873 L622.528,262.553 C614.529,273.464 604.646,281.782 593.143,287.286 C581.439,292.886 567.733,295.725 552.405,295.725 C536.881,295.725 522.746,293.092 510.392,287.899 C498.033,282.702 487.112,274.8 477.931,264.409 C468.556,254.127 461.424,242.035 456.735,228.473 C452.049,214.918 449.673,199.516 449.673,182.692 C449.673,165.667 452.075,150.136 456.811,136.531 C461.551,122.918 468.761,110.851 478.24,100.665 C487.619,90.379 498.77,82.553 511.38,77.408 C523.984,72.266 538.399,69.658 554.222,69.658 C580.635,69.658 602.823,76.613 620.171,90.331 C637.327,104.258 647.764,122.98 651.194,145.982 L651.248,146.346 L617.292,146.346 L617.24,146.093 C614.24,131.696 606.992,120.138 595.696,111.741 C584.393,103.338 570.541,99.078 554.526,99.078 C533.111,99.078 515.862,106.685 503.259,121.689 C490.439,136.512 483.941,157.035 483.941,182.692 C483.941,208.349 490.439,228.871 503.256,243.691 C516.261,258.697 533.715,266.306 555.132,266.306 C573.749,266.306 589.682,260.421 602.49,248.814 C615.213,237.483 622.003,222.785 622.675,205.128 L559.056,205.128 L559.056,176.921 L653.621,176.921 Z M736.688,206.009 L774.096,106.949 L811.504,206.009 L736.688,206.009 Z M792.791,74.506 L755.401,74.506 L670.919,290.878 L705.237,290.878 L726.144,234.822 L822.048,234.822 L842.955,290.878 L877.273,290.878 L792.791,74.506 Z M229.425,98.903 C229.251,99.052 229.114,99.243 229.114,99.5 C229.114,99.703 229.233,99.87 229.358,100.019 C265.592,143.142 335.744,245.991 322.026,288.412 C321.906,288.758 321.925,289.158 322.235,289.337 C322.557,289.529 322.97,289.337 323.194,289.05 C346.282,258.783 360,221.004 360,179.999 C360,130.049 339.643,84.864 306.795,52.258 C306.557,52.021 306.296,51.802 305.998,51.649 C302.972,50.09 284.329,44.286 229.425,98.903 L229.425,98.903 Z M54.001,51.649 C53.703,51.802 53.443,52.021 53.204,52.258 C20.356,84.864 0,130.049 0,179.999 C0,221.004 13.718,258.783 36.806,289.05 C37.03,289.337 37.442,289.529 37.765,289.337 C38.075,289.158 38.093,288.758 37.973,288.412 C24.256,245.991 94.408,143.142 130.641,100.019 C130.766,99.87 130.886,99.703 130.886,99.5 C130.886,99.243 130.749,99.052 130.575,98.903 C75.671,44.286 57.028,50.09 54.001,51.649 L54.001,51.649 Z M273.769,26.338 C246.198,9.956 216.325,0 180,0 C143.674,0 113.801,9.956 86.231,26.338 C85.908,26.523 85.777,26.899 85.932,27.23 C86.081,27.559 86.446,27.625 86.804,27.541 C121.658,20.013 174.601,50.11 179.62,53.132 C179.734,53.197 179.847,53.269 180,53.269 C180.152,53.269 180.265,53.197 180.379,53.132 C185.399,50.11 238.342,20.013 273.195,27.541 C273.554,27.625 273.918,27.559 274.067,27.23 C274.222,26.899 274.091,26.523 273.769,26.338 L273.769,26.338 Z M180,144.363 C180.2,144.363 180.45,144.536 180.588,144.655 C234.418,185.601 326.593,286.889 298.488,315.495 C266.827,343.206 225.38,360 180,360 C134.62,360 93.173,343.206 61.512,315.495 C33.407,286.889 125.573,185.601 179.403,144.655 C179.546,144.536 179.797,144.363 180,144.363 L180,144.363 Z" fill="#FFFFFF"></path></g></svg>