<svg xmlns:xlink="http://www.w3.org/1999/xlink" xmlns="http://www.w3.org/2000/svg"   viewBox="0 0 32 32" class="GenreCard-module__icon___YQ5s4 GenresRow-module__icon___u1EMk Icon-module__icon___5Kqln Icon-module__medium___-UVGN" aria-hidden="true" width="1"  height="1" ><path d="M30 18a1 1 0 01.993.883L31 19v4a1 1 0 01-.883.993L30 24l-1.001-.001.001 5.172a1 1 0 01-.444.83l-.107.063-.268.11c-.44.198-.797.552-1 .991l-.117.284a1 1 0 01-.768.543l-.125.008-1.718-.002L7.411 32a1 1 0 01-.368-.07l-.114-.054-.106-.067c-1.172-.852-2.062-1.804-2.713-2.857-.734-1.189-1.044-2.075-1.322-3.662l-.056-.326-.098-.633-.081-.553-.06-.371-.062-.312c-.141-.655-.3-.88-.6-.981l-.194-.06c-.97-.357-.788-1.818.24-1.926L2 20.122h5.71a1 1 0 01.896.555c.617 1.242 1.423 1.839 2.511 1.901l.195.006h.748l8.483.06.083-.03c1.763-.708 2.646-1.748 2.781-3.206l.014-.201.005-.207a1 1 0 01.883-.993l.117-.007H30zm-1 1.999h-3.653l-.047.258c-.383 1.832-1.639 3.22-3.68 4.108l-.27.113-.28.107a1 1 0 01-.234.055l-.12.006-3.123-.026-6.28-.036c-1.65 0-2.99-.726-3.956-2.1l-.15-.223-.086-.14h-2.88l.032.106c.08.285.148.604.21.96l.044.275.083.561.091.585.09.517c.226 1.217.48 1.9 1.02 2.776.456.737 1.068 1.42 1.876 2.054l.057.044L25.536 30l.083-.138c.272-.43.623-.803 1.033-1.1l.21-.143.138-.083V23a1 1 0 01.77-.974l.113-.02L28 22l1-.001v-2zM21 26a1 1 0 01.117 1.993L21 28h-1a1 1 0 01-.117-1.993L20 26h1zm-5 0a1 1 0 01.117 1.993L16 28h-1a1 1 0 01-.117-1.993L15 26h1zm-5 0a1 1 0 01.117 1.993L11 28h-1a1 1 0 01-.117-1.993L10 26h1zm5-25c.205 0 .395.062.554.167L23 3.117l-6 1.614V6h1.998a1 1 0 01.849 1.53l-.065.09c-.607.768-.677 3.247-.214 4.383l.43-.003c.856 0 1.3.993.778 1.629l-.077.084c-.818.804-.852 3.517-.11 4.453l.1.112c.652.623.21 1.722-.691 1.722h-8.249a1 1 0 01-.767-.36c-1.311-1.57-1.311-5.695-.003-7.277a1 1 0 01.237-.209c-.414-1.853-.238-4.507.525-5.695A1 1 0 0112.583 6h2.415L15 2a1 1 0 01.883-.993L16 1zm2.341 13h-6.027l-.03.07c-.38.992-.38 2.875-.003 3.861l.031.069h6.024l-.02-.06c-.343-1.198-.344-2.645-.003-3.85l.028-.09zm-.845-6H13.23l-.006.017c-.3 1.032-.3 2.941-.001 3.966l.006.017h4.265l-.034-.136a9.045 9.045 0 01-.003-3.699l.04-.165z" fill-rule="evenodd" fill="#FFFFFF"></path></svg>