<svg xmlns:xlink="http://www.w3.org/1999/xlink" xmlns="http://www.w3.org/2000/svg"   viewBox="0 0 32 32" class="GenreCard-module__icon___YQ5s4 GenresRow-module__icon___u1EMk Icon-module__icon___5Kqln Icon-module__medium___-UVGN" aria-hidden="true" width="1"  height="1" ><path d="M20.237 26.964l6.158-6.158c.003.003.004.008.007.01l2.02 2.019-6.157 6.155-2.017-2.018c-.003-.003-.008-.005-.01-.008M4.15 15.65a4.296 4.296 0 01.012-6.053l5.423-5.423a4.293 4.293 0 013.055-1.266c1.154 0 2.24.45 3.055 1.266l2.746 2.746-3.774.275a.907.907 0 00-.179.03c-.664.179-1.137.677-1.33 1.4-.369 1.379.338 3.305 1.203 4.17.9.9 2.047 1.464 3.261 1.669l-3.543 3.542a.957.957 0 001.351 1.352l5.195-5.194a.932.932 0 00.356-1.038.929.929 0 00-.563-.592c-.035-.015-.07-.021-.107-.032a.99.99 0 00-.223-.044c-.065-.004-.126.007-.19.017-.045.006-.088-.002-.13.01a4.105 4.105 0 01-4.055-1.042c-.587-.586-.89-2.032-.739-2.354l7.763-.566a12.875 12.875 0 013.451 9.098l-.027 1.024a.938.938 0 00-.568.258l-7.383 7.383c-.03.03-.044.07-.07.105a17.024 17.024 0 01-5.906-2.602 1769.944 1769.944 0 01-8.084-8.14m26.31 6.522l-2.416-2.416.054-2.083A14.789 14.789 0 0023.79 6.86a.937.937 0 00-.745-.277l-2.083.152-3.914-3.914a6.241 6.241 0 00-8.814 0L2.811 8.245c-2.409 2.408-2.416 6.334-.017 8.75 2.853 2.89 5.57 5.626 8.15 8.205a.99.99 0 00.125.107 18.985 18.985 0 008.05 3.239l2.381 2.382c.015.015.037.02.053.036.015.017.021.038.037.054a.954.954 0 001.351 0l7.384-7.384c.012-.011.015-.026.025-.038.035-.027.078-.041.111-.073a.957.957 0 000-1.352" fill-rule="evenodd" fill="#FFFFFF"></path></svg>