<svg xmlns:xlink="http://www.w3.org/1999/xlink" xmlns="http://www.w3.org/2000/svg"   viewBox="0 0 186 32" class="Header-module__gamePassIcon___tH4Zh Icon-module__icon___5Kqln" width="1"  height="1" ><path d="M140.212 18.312l3.321-8.805 3.322 8.805h-6.643zm4.981-11.69h-3.32l-7.5 19.234h3.047l1.856-4.983h8.515l1.856 4.983h3.047l-7.5-19.233zM186 20.523c0 1.778-.669 3.2-1.988 4.224-1.317 1.022-3.165 1.54-5.492 1.54-2.524 0-4.517-.581-5.923-1.73-1.408-1.149-2.131-2.85-2.15-5.058v-.028h2.935v.028c.027 1.42.476 2.501 1.336 3.21.86.711 2.158 1.071 3.856 1.071 1.404 0 2.498-.274 3.252-.816.75-.54 1.131-1.334 1.131-2.36 0-.83-.312-1.48-.93-1.93-.621-.454-1.758-.864-3.379-1.221l-1.64-.35c-1.969-.394-3.476-1.049-4.48-1.946-1.005-.9-1.515-2.157-1.515-3.738 0-1.582.619-2.862 1.84-3.806 1.219-.942 2.89-1.42 4.967-1.42 2.506 0 4.418.546 5.682 1.623 1.264 1.077 1.924 2.58 1.96 4.465v.028h-2.906l-.002-.026c-.089-1.225-.497-2.138-1.214-2.714-.717-.576-1.893-.869-3.493-.869-1.243 0-2.206.234-2.862.695-.653.46-.984 1.122-.984 1.97 0 .867.295 1.53.877 1.97.586.481 1.687.896 3.271 1.235l1.668.35c2.183.466 3.776 1.147 4.735 2.027.96.88 1.448 2.084 1.448 3.576zm-17.088 0c0 1.778-.67 3.2-1.988 4.224-1.318 1.022-3.165 1.54-5.492 1.54-2.524 0-4.517-.581-5.923-1.73-1.408-1.149-2.132-2.85-2.15-5.058v-.028h2.935v.028c.027 1.42.476 2.501 1.335 3.21.861.711 2.158 1.071 3.856 1.071 1.405 0 2.499-.274 3.253-.816.75-.54 1.131-1.334 1.131-2.36 0-.83-.313-1.48-.93-1.93-.621-.454-1.758-.864-3.379-1.221l-1.64-.35c-1.97-.394-3.476-1.049-4.48-1.946-1.005-.9-1.516-2.157-1.516-3.738 0-1.582.62-2.862 1.84-3.806 1.22-.942 2.891-1.42 4.968-1.42 2.506 0 4.418.546 5.681 1.623 1.265 1.077 1.925 2.58 1.96 4.465l.001.028h-2.906l-.002-.026c-.089-1.225-.497-2.138-1.214-2.714-.718-.576-1.893-.869-3.493-.869-1.244 0-2.207.234-2.862.695-.653.46-.984 1.122-.984 1.97 0 .867.295 1.53.877 1.97.586.481 1.686.896 3.27 1.235l1.669.35c2.182.466 3.775 1.147 4.734 2.027.961.88 1.449 2.084 1.449 3.576zM124.58 9.21h5.191c1.189 0 2.105.305 2.725.908.619.602.933 1.474.933 2.592s-.314 1.986-.933 2.579c-.62.593-1.536.894-2.725.894h-5.19V9.211zm10.107-.951c-1.148-1.086-2.784-1.637-4.862-1.637h-8.18v19.233h2.935v-7.084h5.245c2.078 0 3.714-.55 4.862-1.637 1.148-1.087 1.73-2.575 1.73-4.424 0-1.867-.582-3.364-1.73-4.451zM97.66 6.623v19.233h-2.828V10.594c-.363 1.071-.85 2.399-1.452 3.959l-4.338 11.303h-2.46l-.007-.018-4.385-11.285c-.522-1.393-1-2.703-1.425-3.904v15.207h-2.827V6.623h4.029l3.934 10.226c.79 2.07 1.44 3.865 1.938 5.335a208.285 208.285 0 011.964-5.604l3.8-9.957h4.057zm5.87 2.642v5.573h9.543v2.453h-9.544v5.923h10.788v2.642h-13.722V6.623h13.722v2.642H103.53zm-46.986 6.461v10.129h-2.76v-2.517c-.71.97-1.588 1.71-2.61 2.199-1.038.497-2.255.75-3.616.75-1.379 0-2.634-.234-3.73-.696a7.927 7.927 0 01-2.883-2.088 9.142 9.142 0 01-1.882-3.194c-.416-1.205-.627-2.574-.627-4.07 0-1.513.214-2.893.634-4.103a8.975 8.975 0 011.903-3.188 8.1 8.1 0 012.942-2.067c1.12-.457 2.4-.69 3.804-.69 2.345 0 4.315.619 5.855 1.838 1.524 1.238 2.45 2.903 2.755 4.947l.005.033H53.32l-.005-.023c-.266-1.28-.91-2.307-1.913-3.053-1.003-.747-2.233-1.126-3.655-1.126-1.901 0-3.433.676-4.552 2.01-1.138 1.317-1.715 3.142-1.715 5.422s.577 4.105 1.715 5.422c1.155 1.334 2.704 2.01 4.606 2.01 1.653 0 3.067-.522 4.205-1.554 1.13-1.007 1.732-2.314 1.792-3.883h-5.649v-2.508h8.396zm7.376 2.586l3.321-8.805 3.321 8.805h-6.642zm4.98-11.69h-3.319l-7.5 19.234h3.046l1.856-4.983H71.5l1.856 4.983h3.047L68.902 6.623zM20.37 8.793c-.015.013-.028.03-.028.052 0 .018.01.033.022.047 3.217 3.833 9.446 12.975 8.228 16.746-.01.03-.01.066.018.082.029.017.065 0 .085-.026A15.937 15.937 0 0031.963 16c0-4.44-1.807-8.457-4.724-11.355a.29.29 0 00-.07-.054c-.269-.139-1.924-.654-6.8 4.2zM4.795 4.59a.289.289 0 00-.071.054A15.958 15.958 0 000 16c0 3.645 1.218 7.003 3.268 9.693.02.026.056.043.085.026.028-.016.03-.052.019-.082-1.218-3.771 5.01-12.913 8.227-16.746.011-.014.022-.029.022-.047 0-.022-.012-.04-.028-.053-4.874-4.854-6.53-4.339-6.798-4.2zm19.512-2.25C21.86.885 19.207 0 15.982 0c-3.226 0-5.878.885-8.326 2.341a.061.061 0 00-.026.08c.013.029.045.035.077.027 3.095-.669 7.795 2.006 8.241 2.275.01.006.02.012.034.012.013 0 .023-.006.033-.012.446-.269 5.147-2.944 8.241-2.275.032.008.064.002.078-.027a.061.061 0 00-.027-.08zm-8.325 10.491c.017 0 .04.016.052.026 4.78 3.64 12.963 12.643 10.468 15.186A15.908 15.908 0 0115.982 32c-4.03 0-7.71-1.493-10.52-3.956-2.496-2.543 5.687-11.546 10.467-15.186.012-.01.035-.026.053-.026z" fill-rule="evenodd" fill="#FFFFFF"></path></svg>