<svg xmlns:xlink="http://www.w3.org/1999/xlink" xmlns="http://www.w3.org/2000/svg" viewBox="0 0 2048 2048"   class="GamerPic-module__playerIcon___J3NPw Icon-module__icon___5Kqln" aria-hidden="true" width="1"  height="1" ><path d="M1329 1203q136 47 245 131t187 195 118 243 41 276h-128q0-164-58-304t-162-244-243-161-305-59q-108 0-206 27t-184 76-155 119-119 155-77 184-27 207H128q0-143 42-274t119-242 186-195 245-133q-78-42-140-102T475 968t-67-156-24-172q0-88 23-170t64-153 100-129T701 88t153-65 170-23q88 0 170 23t153 64 129 100 100 130 65 153 23 170q0 87-23 170t-67 157-106 134-139 102zM512 640q0 106 40 199t110 162 163 110 199 41q106 0 199-40t162-110 110-163 41-199q0-106-40-199t-110-162-163-110-199-41q-106 0-199 40T663 278 553 441t-41 199z" fill="#FFFFFF"></path></svg>