<svg xmlns:xlink="http://www.w3.org/1999/xlink" xmlns="http://www.w3.org/2000/svg"   viewBox="0 0 32 32" class="GenreCard-module__icon___YQ5s4 GenresRow-module__icon___u1EMk Icon-module__icon___5Kqln Icon-module__medium___-UVGN" aria-hidden="true" width="1"  height="1" ><path d="M8.59.656a1 1 0 01.705.291l16.374 16.295 1.402-1.401a1 1 0 011.32-.084l.094.084a1 1 0 01.084 1.32l-.084.094-2.9 2.9 5.029 5.029a1 1 0 010 1.414l-4.242 4.242a1 1 0 01-1.414 0l-5.03-5.029-2.756 2.757a1 1 0 01-1.32.084l-.094-.084a1 1 0 01-.084-1.32l.084-.094 1.476-1.477L.947 9.487a1 1 0 01-.295-.709l.003-7.12a1 1 0 011-1L8.588.657zM24.192 21.59l-2.829 2.829 4.301 4.3 2.827-2.829-4.3-4.3zM8.177 2.655l-5.521.003-.004 5.704 15.99 15.895 2.073-2.073-10.113-10.112-.083-.095a1 1 0 011.403-1.403l.094.083L22.13 20.77l2.12-2.12L8.177 2.655z" fill-rule="evenodd" fill="#FFFFFF"></path></svg>