<svg xmlns:xlink="http://www.w3.org/1999/xlink" xmlns="http://www.w3.org/2000/svg"   viewBox="0 0 32 32" class="GenreCard-module__icon___YQ5s4 GenresRow-module__icon___u1EMk Icon-module__icon___5Kqln Icon-module__medium___-UVGN" aria-hidden="true" width="1"  height="1" ><path d="M10 0a4 4 0 012.646 7h.982a2 2 0 011.991 2.19l-.02.148-.514 3c-.089.517-.371.96-.766 1.258a1.993 1.993 0 01.003.796l-.123.607L15 15v2h-1.2l1.722 8.608c.026.131.039.262.039.392H16a2 2 0 012 1.988V28a2 2 0 011.216-1.84 2.128 2.128 0 01.004-.359l.579-5.802L19 20v-2h1.535a4 4 0 116.93 0H29v2l-.8-.001.58 5.802c.012.121.013.241.004.358A2 2 0 0130 28v2a2 2 0 01-2 2h-8a2 2 0 01-2-1.988V30a2 2 0 01-2 2H4a2 2 0 01-2-2v-2a2 2 0 012-2h.44a2 2 0 01.038-.392L6.2 17H5v-2l.799-.001-.12-.607a1.994 1.994 0 01.002-.797 1.993 1.993 0 01-.73-1.087l-.036-.17-.514-3a2 2 0 011.822-2.333L6.372 7h.982A4 4 0 0110 0zm6 28H4v2h12v-2zm12 0h-8v2h8v-2zM11.76 17H8.24l-1.8 9h7.12l-1.8-9zm14.43 3h-4.38l-.6 6h5.58l-.6-6zM24 14a2 2 0 100 4 2 2 0 000-4zM13.628 8.998H6.445L6.372 9l.498 2.916.016.083 1.01.762L7.64 14l.199.999h4.321l.2-.999-.256-1.237 1.01-.763.514-3.002zM10 2a2 2 0 100 4 2 2 0 000-4z" fill-rule="evenodd" fill="#FFFFFF"></path></svg>