<svg xmlns:xlink="http://www.w3.org/1999/xlink" xmlns="http://www.w3.org/2000/svg" viewBox="0 0 2048 2048"   class="Input-module__icon___dBAq6 Icon-module__icon___5Kqln Icon-module__xxSmall___cJcD7" width="1"  height="1" ><path d="M1344 0q97 0 187 25t168 71 143 110 110 142 71 169 25 187q0 97-25 187t-71 168-110 143-142 110-169 71-187 25q-127 0-240-41t-211-122l-784 784q-19 19-45 19t-45-19-19-45q0-26 19-45l784-784q-80-98-121-211t-42-240q0-97 25-187t71-168 110-143T988 96t169-71 187-25zm0 1280q119 0 224-45t183-124 123-183 46-224q0-119-45-224t-124-183-183-123-224-46q-119 0-224 45T937 297 814 480t-46 224q0 119 45 224t124 183 183 123 224 46z" fill-opacity="1" fill="#FFFFFF"></path></svg>