<svg xmlns:xlink="http://www.w3.org/1999/xlink" xmlns="http://www.w3.org/2000/svg"   viewBox="0 0 32 32" class="GenreCard-module__icon___YQ5s4 GenresRow-module__icon___u1EMk Icon-module__icon___5Kqln Icon-module__medium___-UVGN" aria-hidden="true" width="1"  height="1" ><path d="M10 12c-1.08 0-2.09-.266-3.02-.797A6.133 6.133 0 014.8 9.016 5.978 5.978 0 014 6c0-1.083.27-2.083.8-3A5.973 5.973 0 016.98.812 5.906 5.906 0 0110 0c1.08 0 2.08.27 3 .813A5.78 5.78 0 0115.19 3c.54.917.81 1.917.81 3s-.27 2.089-.81 3.016A5.93 5.93 0 0113 11.203c-.92.531-1.92.797-3 .797zm0-2c.72 0 1.39-.177 2-.531.61-.365 1.1-.854 1.45-1.469.37-.615.55-1.281.55-2 0-.719-.18-1.385-.55-2A3.886 3.886 0 0012 2.547 3.836 3.836 0 0010 2c-.72 0-1.39.182-2 .547A4.09 4.09 0 006.53 4 3.978 3.978 0 006 6c0 .719.18 1.385.53 2A4.22 4.22 0 008 9.469c.61.354 1.28.531 2 .531zm14 4c-.64 0-1.23-.135-1.78-.406a4.01 4.01 0 01-1.39-1.156l-.06-.079a3.802 3.802 0 01-.58-1.093A4.123 4.123 0 0120 10c0-.719.18-1.385.53-2A4.09 4.09 0 0122 6.547 3.836 3.836 0 0124 6c.72 0 1.39.182 2 .547.61.354 1.1.838 1.45 1.453.37.615.55 1.281.55 2 0 .719-.18 1.385-.55 2A4.005 4.005 0 0126 13.469c-.61.354-1.28.531-2 .531zm0-2c.55 0 1.02-.193 1.41-.578.39-.396.59-.87.59-1.422 0-.552-.2-1.02-.59-1.406A1.908 1.908 0 0024 8c-.55 0-1.03.198-1.42.594-.39.385-.58.854-.58 1.406 0 .552.19 1.026.58 1.422.39.385.87.578 1.42.578zm-8 8c-.72 0-1.39-.177-2-.531A4.22 4.22 0 0112.53 18a3.978 3.978 0 01-.53-2 3.978 3.978 0 011.98-3.453A3.906 3.906 0 0116 12c.72 0 1.39.182 2 .547.61.354 1.1.838 1.45 1.453.37.615.55 1.281.55 2 0 .719-.18 1.385-.53 2a4.039 4.039 0 01-1.42 1.453c-.61.354-1.27.537-1.99.547H16zM6 25.375c-1.24-.417-2.31-1.01-3.22-1.781-.9-.771-1.6-1.64-2.08-2.61C.23 20.005 0 19.01 0 18v-1c0-.542.14-1.042.41-1.5.27-.458.63-.823 1.09-1.094.46-.27.96-.406 1.5-.406h7.34a6.001 6.001 0 00-.34 2H3c-.27 0-.51.099-.7.297-.2.198-.3.432-.3.703v1c0 .698.17 1.396.5 2.094.33.687.82 1.317 1.47 1.89.64.573 1.42 1.032 2.31 1.375C6.09 23.87 6 24.417 6 25v.375zM16.17 18c.52-.052.95-.266 1.3-.64.35-.386.53-.84.53-1.36 0-.552-.2-1.02-.59-1.406A1.907 1.907 0 0016 14c-.55 0-1.03.198-1.42.594-.39.385-.58.854-.58 1.406 0 .552.19 1.026.58 1.422.39.385.87.578 1.42.578h.17zm9.8 7.828c.02-.375.03-.65.03-.828 0-.417-.05-.818-.14-1.203.97-.209 1.79-.584 2.47-1.125C29.44 21.766 30 20.542 30 19c0-.27-.1-.505-.3-.703A.943.943 0 0029 18h-7.34c.23-.656.34-1.323.34-2h7c.54 0 1.04.135 1.5.406.46.271.82.636 1.09 1.094.27.458.41.958.41 1.5 0 1.094-.21 2.083-.64 2.969a6.427 6.427 0 01-1.78 2.265c-.98.782-2.18 1.313-3.61 1.594zM16 32c-1.07 0-2.09-.146-3.05-.438a7.711 7.711 0 01-2.53-1.328 6.439 6.439 0 01-1.61-1.906c-.4-.74-.66-1.562-.76-2.469A8.09 8.09 0 018 25c0-.385.07-.766.22-1.14A2.991 2.991 0 0111 22h10c.65 0 1.22.188 1.73.563.53.364.89.843 1.1 1.437.11.323.17.656.17 1 0 .375-.02.708-.06 1a6.744 6.744 0 01-.78 2.375 6.9 6.9 0 01-1.58 1.86 7.711 7.711 0 01-2.53 1.328c-.96.291-1.98.437-3.05.437zm0-2c.88 0 1.68-.115 2.41-.344.74-.229 1.38-.557 1.92-.984.9-.74 1.44-1.698 1.61-2.875.04-.219.06-.485.06-.797 0-.27-.1-.505-.3-.703A.943.943 0 0021 24H11c-.27 0-.51.099-.7.297-.2.198-.3.432-.3.703 0 .354.03.688.09 1 .19 1.073.72 1.963 1.58 2.672.54.427 1.18.755 1.91.984.74.23 1.54.344 2.42.344z" fill-rule="evenodd" fill="#FFFFFF"></path></svg>