<svg xmlns:xlink="http://www.w3.org/1999/xlink" xmlns="http://www.w3.org/2000/svg"   viewBox="0 0 32 32" class="GenreCard-module__icon___YQ5s4 GenresRow-module__icon___u1EMk Icon-module__icon___5Kqln Icon-module__medium___-UVGN" aria-hidden="true" width="1"  height="1" ><path d="M14.25 32c-.813 0-1.547-.23-2.203-.688a3.51 3.51 0 01-1.344-1.828l-.078-.28-1.875-7.829c-.042-.208-.156-.406-.344-.594-2.802-2.646-4.265-5.547-4.39-8.703L4 11.594v-.375c.073-2.052.651-3.933 1.734-5.64A11.919 11.919 0 0110.078 1.5C11.891.5 13.865 0 16 0c2.177 0 4.182.52 6.016 1.563 1.833 1.041 3.286 2.447 4.359 4.218C27.458 7.552 28 9.49 28 11.594c0 3.364-1.469 6.427-4.406 9.187a1.209 1.209 0 00-.297.438l-.047.156-1.875 7.828a3.48 3.48 0 01-1.203 1.938 3.63 3.63 0 01-2.14.843L17.75 32h-3.5zm-2.813-8H15v-9c0-.281.099-.516.297-.703A.961.961 0 0116 14c.27 0 .505.099.703.297A.929.929 0 0117 15v9h3.563l.78-3.234.11-.297c.177-.448.432-.828.766-1.14C24.739 16.942 26 14.364 26 11.593c0-1.73-.448-3.328-1.344-4.797a9.869 9.869 0 00-3.64-3.5C19.484 2.432 17.813 2 16 2c-1.73 0-3.333.396-4.813 1.188a10.004 10.004 0 00-3.593 3.187 8.994 8.994 0 00-1.563 4.453L6 11.25v.313l.016.437c.114 2.625 1.37 5.068 3.765 7.328.375.365.651.792.828 1.281l.094.297.735 3.094zM16 12a.988.988 0 01-1-1V9c0-.27.099-.505.297-.703A.961.961 0 0116 8c.27 0 .505.099.703.297A.961.961 0 0117 9v2a.988.988 0 01-1 1zm-5.703.297c-.198-.219-.297-.453-.297-.703 0-.271.099-.505.297-.703a.961.961 0 01.703-.297c.281 0 .516.099.703.297l1.422 1.406a.928.928 0 01.297.703.98.98 0 01-.297.719.961.961 0 01-.703.297c-.26 0-.5-.1-.719-.297l-1.406-1.422zm8.578 1.422a1.05 1.05 0 01-.297-.719c0-.27.1-.505.297-.703l1.406-1.406a.98.98 0 01.719-.297c.281 0 .516.099.703.297a.929.929 0 01.297.703c0 .27-.099.505-.297.703l-1.422 1.422a.96.96 0 01-.703.297c-.25 0-.484-.1-.703-.297zM17.891 30c.343-.031.646-.14.906-.328.27-.198.463-.443.578-.735l.063-.187.656-2.75h-8.188l.64 2.672.048.187c.104.302.286.558.547.766.26.198.552.318.875.36l.234.015h3.64z" fill-rule="evenodd" fill="#FFFFFF"></path></svg>