<svg xmlns:xlink="http://www.w3.org/1999/xlink" xmlns="http://www.w3.org/2000/svg"   viewBox="0 0 32 32" class="GenreCard-module__icon___YQ5s4 GenresRow-module__icon___u1EMk Icon-module__icon___5Kqln Icon-module__medium___-UVGN" aria-hidden="true" width="1"  height="1" ><path d="M15.423 23.002H15a2 2 0 01-2-2h3.295c.308.3.6.63.877.98.255.325.494.668.722 1.02h-2.471zm2.748-16c2.926-1.66 5.454-2.645 7.535-2.905.77-.097 1.26-.107 1.563-.087-.26.333-.662.74-.872.954a13.293 13.293 0 00-1.665 2.038H18.17zm7.787-4.89c1.602-.2 3.32-.252 3.889.9.595 1.204-.631 2.448-1.526 3.356l-.286.294c-.103.11-.186.228-.285.34-.334.382-.64.775-.907 1.184v.006A5.588 5.588 0 0129 12.602v2.8c0 .203-.013.403-.034.6a5.582 5.582 0 01-1.99 3.709v.01c.602.674 1.13 1.393 1.573 2.135.295.497.558 1 .789 1.5a19.567 19.567 0 011.553 5.239c.046.315.075.588.093.805.008.11.013.205.016.286 0 .493-.808.848-1.97 1.064-.257.048-.533.089-.821.123-.432.052-.892.088-1.363.108a21.507 21.507 0 01-1.432.016 17.954 17.954 0 01-2.26-.181c-1.371-.205-2.37-.582-2.37-1.13 0-1.12-.475-2.903-1.301-4.684H15a3.975 3.975 0 01-3-1.38 3.91 3.91 0 01-.445-.62 3.958 3.958 0 01-.555-2H9v-2h8.612l.583.572c.135.133.259.286.39.428a14.86 14.86 0 011.802 2.436 18.834 18.834 0 011.284 2.564c.538 1.313.905 2.61 1.047 3.713 1.41.367 4.635.38 6.179.04-.276-1.76-1.162-5.22-3.406-7.704L24.546 20l-.45-.498 1.603-1.331a3.584 3.584 0 001.235-2.17c.033-.197.066-.396.066-.6v-.4H15.8a.8.8 0 01-.8-.8v-.4a.8.8 0 01.8-.8H27v-.4a3.581 3.581 0 00-1.127-2.604 3.653 3.653 0 00-.83-.581 3.566 3.566 0 00-.937-.344 3.572 3.572 0 00-.705-.071H9v-2h5.84c4.41-2.894 8.07-4.508 11.118-4.89zM6.017 9.002c.069 0 .13.025.194.039A.97.97 0 017 9.985v8.034a.97.97 0 01-.79.944c-.063.014-.124.039-.193.039h-.034a.964.964 0 01-.607-.23A.965.965 0 015 18.02V9.985c0-.31.152-.574.376-.755a.969.969 0 01.607-.228zm-4 2c.543 0 .983.44.983.983v3.034c0 .543-.44.983-.983.983h-.033A.984.984 0 011 15.019v-3.034c0-.15.039-.288.099-.415a.978.978 0 01.885-.568z" fill-rule="evenodd" fill="#FFFFFF"></path></svg>