<svg xmlns:xlink="http://www.w3.org/1999/xlink" xmlns="http://www.w3.org/2000/svg"   viewBox="0 0 32 32" class="GenreCard-module__icon___YQ5s4 GenresRow-module__icon___u1EMk Icon-module__icon___5Kqln Icon-module__medium___-UVGN" aria-hidden="true" width="1"  height="1" ><path d="M11.909 1c.375 0 .74.043 1.09.124-1.484.343-1.79 1.371-1.834 2.741l-.007.365.006.573c0 .066.002.131.004.198L14.034 5c.876 0 1.312 1.034.75 1.661l-.078.08-1.559 1.413L15.78 12h6.338V9a1 1 0 01.74-.966l.11-.023.113-.01c3.24-.121 4.89 2.398 4.97 7.016-.012.678-.088 1.144-.28 1.874l-.168.624c-.201.784-.258 1.288-.19 2.064l.032.305.045.344.058.385.073.425.135.715.167.806.128.587.219.958.25 1.049.486 1.948.574 2.199.385 1.439a1 1 0 01-.85 1.255L29 32h-3.915a1 1 0 01-.912-.588l-.042-.11-1.435-4.526-.173-.075a3.893 3.893 0 01-1.333-1.028l-.152-.193-.142-.205c-.332-.511-.584-1.139-.764-1.885l-.072-.327-.013-.063h-3.99l-1.81 8.215a1 1 0 01-.737.756l-.123.022-.116.007h-2.95a1 1 0 01-.993-.883L9.322 31l-.001-8.643-.217-.267-.593-.739-.504-.646-.416-.553-.229-.319-.19-.278c-.453-.686-.705-1.486-.809-2.398a9.524 9.524 0 01-.054-1.353l.01-.308.025-.496H4.999L5 19c-1.582 0-2.877-.816-2.992-1.85L2 17l-.001-3.628C.789 12.088.61 10.71 1.697 9.37 2.81 8 4.531 6.6 6.861 5.15a1 1 0 01.228-.104C7.526 2.741 9.518 1 11.91 1zm-.466 6H7.677l-.157.1c-1.692 1.082-2.988 2.114-3.884 3.086l-.2.223-.186.221c-.484.597-.258 1.23 1.138 2.158l.181.117.152.095h2.668a1 1 0 01.97.755l.021.111.009.115.001.17-.004.182-.067 1.214c-.024.56-.016.964.031 1.384.07.622.23 1.127.49 1.521l.081.12.192.272.362.488.45.583.54.678.63.772a1 1 0 01.217.497l.01.138-.001 8h1.146l1.81-8.215a1 1 0 01.738-.756l.123-.022.116-.007H20.9a1 1 0 01.993.88c.127 1.048.362 1.818.68 2.306.276.426.66.702 1.194.85a1 1 0 01.64.545l.045.117L25.816 30h1.88l-.178-.672-.46-1.77-.307-1.223-.361-1.49-.306-1.329-.191-.892-.11-.546-.14-.743-.076-.446-.061-.406-.048-.367c-.145-1.25-.075-2.002.215-3.125l.211-.794c.117-.47.16-.775.167-1.18-.048-2.782-.636-4.3-1.758-4.816l-.127-.053-.048-.016V13a1 1 0 01-.77.974l-.113.02-.117.006h-7.864a1 1 0 01-.75-.338l-.075-.097-3.423-5a1 1 0 01.067-1.217l.086-.088.284-.26z" fill-rule="evenodd" fill="#FFFFFF"></path></svg>